<?xml version="1.0" encoding="UTF-8" standalone="no"?>
<!DOCTYPE svg PUBLIC "-//W3C//DTD SVG 1.1//EN" "http://www.w3.org/Graphics/SVG/1.1/DTD/svg11.dtd">
<svg width="100%" height="100%" viewBox="0 0 355 686" version="1.1" xmlns="http://www.w3.org/2000/svg" xmlns:xlink="http://www.w3.org/1999/xlink" xml:space="preserve" xmlns:serif="http://www.serif.com/" style="fill-rule:evenodd;clip-rule:evenodd;stroke-linejoin:round;stroke-miterlimit:2;">
    <g transform="matrix(1,0,0,1,-335.862,-40.1406)">
        <g transform="matrix(1.22449,0,0,1.76471,0,-35.2941)">
            <g transform="matrix(0.816667,0,0,0.566667,179.667,-68.5811)">
                <text id="_1st-j" serif:id="1st j" x="260px" y="446.297px" style="font-family:'ArialMT', 'Arial', sans-serif;font-size:288px;fill:rgb(216,0,0);">J</text>
            </g>
        </g>
        <g transform="matrix(1.22449,0,0,1.76471,0,-35.2941)">
            <g transform="matrix(0.816667,0,0,0.566667,179.667,-93.3333)">
                <text id="_2nd-j" serif:id="2nd j" x="260px" y="446.297px" style="font-family:'ArialMT', 'Arial', sans-serif;font-size:288px;">J</text>
            </g>
        </g>
        <g transform="matrix(1.22449,0,0,1.76471,0,-35.2941)">
            <g transform="matrix(0.816667,0,0,0.566667,179.667,-43.8289)">
                <text id="_3rd-j" serif:id="3rd j" x="260px" y="446.297px" style="font-family:'ArialMT', 'Arial', sans-serif;font-size:288px;fill:rgb(255,0,107);">J</text>
            </g>
        </g>
        <g transform="matrix(1.22449,0,0,1.76471,0,-35.2941)">
            <g transform="matrix(0.816667,0,0,0.566667,179.667,-6.70051)">
                <text id="_4th-j" serif:id="4th j" x="260px" y="446.297px" style="font-family:'ArialMT', 'Arial', sans-serif;font-size:288px;fill:rgb(255,0,107);">J</text>
            </g>
        </g>
        <g transform="matrix(1.22449,0,0,1.76471,0,-35.2941)">
            <g transform="matrix(0.816667,0,0,0.566667,179.667,18.0517)">
                <text id="_5th-j" serif:id="5th j" x="260px" y="446.297px" style="font-family:'ArialMT', 'Arial', sans-serif;font-size:288px;fill:rgb(9,0,68);">J</text>
            </g>
        </g>
        <g transform="matrix(1.22449,0,0,1.76471,0,-35.2941)">
            <g transform="matrix(0.816667,0,0,0.566667,179.667,54)">
                <text id="_6th-j" serif:id="6th j" x="260px" y="446.297px" style="font-family:'ArialMT', 'Arial', sans-serif;font-size:288px;fill:rgb(40,94,0);">J</text>
            </g>
        </g>
        <g transform="matrix(1.22449,0,0,1.76471,0,-35.2941)">
            <g transform="matrix(0.816667,0,0,0.566667,179.667,84.4318)">
                <text id="_7th-j" serif:id="7th j" x="260px" y="446.297px" style="font-family:'ArialMT', 'Arial', sans-serif;font-size:288px;fill:rgb(255,0,73);">J</text>
            </g>
        </g>
        <g transform="matrix(1.22449,0,0,1.76471,0,-35.2941)">
            <g transform="matrix(0.816667,0,0,0.566667,179.667,122)">
                <text id="eight-j" serif:id="eight j" x="260px" y="446.297px" style="font-family:'ArialMT', 'Arial', sans-serif;font-size:288px;">J</text>
            </g>
        </g>
        <g transform="matrix(1.22449,0,0,1.76471,0,-35.2941)">
            <g transform="matrix(0.816667,0,0,0.566667,253.167,59.6667)">
                <text id="ninth-j" serif:id="ninth j" x="0px" y="644.678px" style="font-family:'ArialMT', 'Arial', sans-serif;font-size:900px;fill:rgb(254,0,0);">J</text>
            </g>
        </g>
    </g>
</svg>
